# xmcd
#
# Track frame offsets: 
#        183
#        9583
#        32513
#        50670
#        75508
#        89635
#        99940
#        126610
#        132390
#        142975
#        184303
#        198275
#        208715
#        224548
#        242080
#
# Disc length: 3516 seconds
#
# Revision: 3
# Processed by: cddbd v1.5.2PL0 Copyright (c) Steve Scherf et al.
# Submitted via: ExactAudioCopyFreeDBPlugin 1.0
#
DISCID=db0dba0f
DTITLE=James Brown - Live At Chastain Park
DYEAR=1900
DGENRE=Blues
TTITLE0=Give It Up Or Turn It A Loose
TTITLE1=It's Too Funky In Here
TTITLE2=Doing It To Death
TTITLE3=Try Me
TTITLE4=Get On The Good Foot
TTITLE5=Get Up Offa That Thing
TTITLE6=Georgia In My Mind
TTITLE7=Hot Pants
TTITLE8=I Got The Feelin'
TTITLE9=It's A Man's, Man's World
TTITLE10=Cold Sweat - I Can't Stand Myself (When You Touch Me)
TTITLE11=Papa's Got A Brand New Bag
TTITLE12=I Got You (I Feel Good)
TTITLE13=Please, Please, Please
TTITLE14=Jam
EXTD=ID3G: 29
EXTT0=
EXTT1=
EXTT2=
EXTT3=
EXTT4=
EXTT5=
EXTT6=
EXTT7=
EXTT8=
EXTT9=
EXTT10=
EXTT11=
EXTT12=
EXTT13=
EXTT14=
PLAYORDER=
